<svg xmlns="http://www.w3.org/2000/svg" xmlns:xlink="http://www.w3.org/1999/xlink" version="1.0" x="0px" y="0px" viewBox="0 0 56.693 56.693" enable-background="new 0 0 56.693 56.693" xml:space="preserve"><path fill="transparent" d="M44.006,20.488l-4.625-4.625l-14.77,14.77c-0.523,0.523-1.372,0.523-1.895,0l-5.404-5.404l-4.625,4.625  L23.664,40.83L44.006,20.488z"></path><path fill="#ffffff" d="M22.716,43.673c0.251,0.251,0.592,0.393,0.948,0.393c0.355,0,0.696-0.141,0.948-0.393l22.238-22.238  c0.523-0.523,0.523-1.372,0-1.895l-6.52-6.52c-0.251-0.251-0.592-0.393-0.948-0.393s-0.696,0.141-0.948,0.393l-14.77,14.77  l-5.404-5.404c-0.251-0.251-0.592-0.393-0.948-0.393c-0.355,0-0.696,0.141-0.948,0.393l-6.52,6.52c-0.523,0.523-0.523,1.372,0,1.895  L22.716,43.673z M17.312,25.229l5.404,5.404c0.523,0.523,1.372,0.523,1.895,0l14.77-14.77l4.625,4.625L23.664,40.83L12.687,29.854  L17.312,25.229z"></path></svg>