<svg xmlns="http://www.w3.org/2000/svg" fill="white" xmlns:xlink="http://www.w3.org/1999/xlink" version="1.1" x="0px" y="0px" viewBox="0 0 100 100" enable-background="new 0 0 100 100" xml:space="preserve"><path d="M55.143,17.633l17.917,0.026c1.603,0.002,3.108,0.628,4.239,1.764c1.132,1.135,1.754,2.643,1.752,4.245L79.01,51.377  c-0.002,1.104,0.893,2.001,1.997,2.003h0.003c1.104,0,1.998-0.894,2-1.997l0.041-27.709c0.004-2.671-1.033-5.184-2.919-7.075  s-4.396-2.936-7.066-2.939l-17.917-0.026h-0.003c-1.104,0-1.998,0.894-2,1.997C53.144,16.734,54.038,17.631,55.143,17.633z   M44.881,82.367l-17.917-0.026c-1.603-0.003-3.108-0.629-4.24-1.764s-1.754-2.643-1.751-4.245l0.017-11.541  c0.002-1.104-0.893-2.001-1.997-2.003h-0.003c-1.104,0-1.998,0.894-2,1.997l-0.017,11.541c-0.009,5.514,4.471,10.006,9.985,10.015  l17.917,0.026h0.003c1.104,0,1.998-0.894,2-1.997C46.88,83.266,45.985,82.369,44.881,82.367z M19.007,53.288h0.003  c1.104,0,1.998-0.894,2-1.997l0.041-27.709c0.002-1.603,0.628-3.108,1.764-4.24c1.133-1.129,2.637-1.751,4.235-1.751h0.01  l17.917,0.026h0.003c1.104,0,1.998-0.894,2-1.997c0.002-1.104-0.893-2.001-1.997-2.003l-17.917-0.026H27.05  c-2.665,0-5.172,1.036-7.06,2.919c-1.892,1.886-2.936,4.396-2.939,7.066L17.01,51.285C17.008,52.39,17.902,53.286,19.007,53.288z   M80.992,62.88h-0.003c-1.104,0-1.998,0.894-2,1.997l-0.017,11.541c-0.005,3.306-2.696,5.991-6.001,5.991h-0.008l-17.917-0.026  h-0.003c-1.104,0-1.998,0.894-2,1.997c-0.002,1.104,0.893,2.001,1.997,2.003l17.917,0.026h0.014c5.507,0,9.992-4.477,10.001-9.985  l0.017-11.541C82.991,63.778,82.097,62.882,80.992,62.88z M87.753,56.056l-75.5-0.111H12.25c-1.104,0-1.998,0.894-2,1.997  c-0.002,1.104,0.893,2.001,1.997,2.003l75.5,0.111h0.003c1.104,0,1.998-0.894,2-1.997C89.752,56.954,88.857,56.058,87.753,56.056z"></path></svg>